HIERARCHY
ROOT Hips
{
  OFFSET 5.80788e-005 67.184 3.4734
  CHANNELS 6 Xposition Yposition Zposition Zrotation Xrotation Yrotation
  JOINT Chest
  {
    OFFSET 0 8.7983 -4.7612
    CHANNELS 3 Zrotation Xrotation Yrotation
    JOINT Chest2
    {
      OFFSET 0 8.0291 0.4195
      CHANNELS 3 Zrotation Xrotation Yrotation
      JOINT Chest3
      {
        OFFSET 0 9.9351 -2.2114
        CHANNELS 3 Zrotation Xrotation Yrotation
        JOINT Neck
        {
          OFFSET 0 22.3885 -0.4656
          CHANNELS 3 Zrotation Xrotation Yrotation
          JOINT Head
          {
            OFFSET -0.0001 12.643 3.4389
            CHANNELS 3 Zrotation Xrotation Yrotation
            End Site
            {
              OFFSET 0.0001 17.6655 0.5274
            }
          }
        }
        JOINT LeftCollar
        {
          OFFSET 2.2603 21.606 7.4023
          CHANNELS 3 Zrotation Xrotation Yrotation
          JOINT LeftShoulder
          {
            OFFSET 13.5163 -1.1332 -5.0146
            CHANNELS 3 Zrotation Xrotation Yrotation
            JOINT LeftElbow
            {
              OFFSET -0.0995 -28.05 -0.2431
              CHANNELS 3 Zrotation Xrotation Yrotation
              JOINT LeftWrist
              {
                OFFSET 0.0679 -23.3996 -0.1402
                CHANNELS 3 Zrotation Xrotation Yrotation
                JOINT LeftFinger1
                {
                  OFFSET 0.7932 -9.069 2.5189
                  CHANNELS 3 Zrotation Xrotation Yrotation
                  JOINT LeftFinger11
                  {
                    OFFSET -0.8272 -3.3923 0.5977
                    CHANNELS 3 Zrotation Xrotation Yrotation
                    JOINT LeftFinger12
                    {
                      OFFSET -0.5649 -2.3158 0.4082
                      CHANNELS 3 Zrotation Xrotation Yrotation
                      End Site
                      {
                        OFFSET -0.4919 -1.6479 0.2673
                      }
                    }
                  }
                }
                JOINT LeftFinger2
                {
                  OFFSET 0.9159 -9.2044 0.2193
                  CHANNELS 3 Zrotation Xrotation Yrotation
                  JOINT LeftFinger21
                  {
                    OFFSET 0.0117 -4.1944 -0.0248
                    CHANNELS 3 Zrotation Xrotation Yrotation
                    JOINT LeftFinger22
                    {
                      OFFSET 0.0071 -2.3249 -0.0142
                      CHANNELS 3 Zrotation Xrotation Yrotation
                      End Site
                      {
                        OFFSET -0.1475 -2.0882 0.0028
                      }
                    }
                  }
                }
                JOINT LeftFinger3
                {
                  OFFSET 0.6113 -8.7231 -2.0637
                  CHANNELS 3 Zrotation Xrotation Yrotation
                  JOINT LeftFinger31
                  {
                    OFFSET -0.1927 -3.8059 -0.2383
                    CHANNELS 3 Zrotation Xrotation Yrotation
                    JOINT LeftFinger32
                    {
                      OFFSET -0.1091 -2.1688 -0.1362
                      CHANNELS 3 Zrotation Xrotation Yrotation
                      End Site
                      {
                        OFFSET -0.2358 -1.9176 -0.0906
                      }
                    }
                  }
                }
                JOINT LeftFinger4
                {
                  OFFSET -0.6151 -8.0947 -3.5641
                  CHANNELS 3 Zrotation Xrotation Yrotation
                  JOINT LeftFinger41
                  {
                    OFFSET -0.4882 -2.341 -0.6462
                    CHANNELS 3 Zrotation Xrotation Yrotation
                    JOINT LeftFinger42
                    {
                      OFFSET -0.3575 -1.7167 -0.4742
                      CHANNELS 3 Zrotation Xrotation Yrotation
                      End Site
                      {
                        OFFSET -0.4187 -1.5237 -0.3496
                      }
                    }
                  }
                }
                JOINT LeftFinger0
                {
                  OFFSET -1.42 -1.8761 1.4223
                  CHANNELS 3 Zrotation Xrotation Yrotation
                  JOINT LeftFinger01
                  {
                    OFFSET -1.1471 -3.4929 2.6334
                    CHANNELS 3 Zrotation Xrotation Yrotation
                    JOINT LeftFinger02
                    {
                      OFFSET -0.823 -2.3 1.6571
                      CHANNELS 3 Zrotation Xrotation Yrotation
                      End Site
                      {
                        OFFSET -0.5822 -1.6914 1.1582
                      }
                    }
                  }
                }
              }
            }
          }
        }
        JOINT RightCollar
        {
          OFFSET -2.2603 21.606 7.4023
          CHANNELS 3 Zrotation Xrotation Yrotation
          JOINT RightShoulder
          {
            OFFSET -13.5187 -1.1334 -5.0155
            CHANNELS 3 Zrotation Xrotation Yrotation
            JOINT RightElbow
            {
              OFFSET 0.0994 -28.0499 -0.2431
              CHANNELS 3 Zrotation Xrotation Yrotation
              JOINT RightWrist
              {
                OFFSET -0.0679 -23.3996 -0.1402
                CHANNELS 3 Zrotation Xrotation Yrotation
                JOINT RightFinger1
                {
                  OFFSET -0.7932 -9.0691 2.5189
                  CHANNELS 3 Zrotation Xrotation Yrotation
                  JOINT RightFinger11
                  {
                    OFFSET 0.8272 -3.3923 0.5977
                    CHANNELS 3 Zrotation Xrotation Yrotation
                    JOINT RightFinger12
                    {
                      OFFSET 0.565 -2.3158 0.4082
                      CHANNELS 3 Zrotation Xrotation Yrotation
                      End Site
                      {
                        OFFSET 0.4919 -1.6479 0.2673
                      }
                    }
                  }
                }
                JOINT RightFinger2
                {
                  OFFSET -0.916 -9.2044 0.2193
                  CHANNELS 3 Zrotation Xrotation Yrotation
                  JOINT RightFinger21
                  {
                    OFFSET -0.0117 -4.1944 -0.0248
                    CHANNELS 3 Zrotation Xrotation Yrotation
                    JOINT RightFinger22
                    {
                      OFFSET -0.0071 -2.3249 -0.0142
                      CHANNELS 3 Zrotation Xrotation Yrotation
                      End Site
                      {
                        OFFSET 0.1475 -2.0882 0.0028
                      }
                    }
                  }
                }
                JOINT RightFinger3
                {
                  OFFSET -0.6113 -8.7231 -2.0637
                  CHANNELS 3 Zrotation Xrotation Yrotation
                  JOINT RightFinger31
                  {
                    OFFSET 0.1927 -3.8059 -0.2383
                    CHANNELS 3 Zrotation Xrotation Yrotation
                    JOINT RightFinger32
                    {
                      OFFSET 0.1091 -2.1688 -0.1362
                      CHANNELS 3 Zrotation Xrotation Yrotation
                      End Site
                      {
                        OFFSET 0.2358 -1.9176 -0.0906
                      }
                    }
                  }
                }
                JOINT RightFinger4
                {
                  OFFSET 0.6151 -8.0947 -3.564
                  CHANNELS 3 Zrotation Xrotation Yrotation
                  JOINT RightFinger41
                  {
                    OFFSET 0.4882 -2.341 -0.6462
                    CHANNELS 3 Zrotation Xrotation Yrotation
                    JOINT RightFinger42
                    {
                      OFFSET 0.3574 -1.7166 -0.4742
                      CHANNELS 3 Zrotation Xrotation Yrotation
                      End Site
                      {
                        OFFSET 0.4187 -1.5237 -0.3496
                      }
                    }
                  }
                }
                JOINT RightFinger0
                {
                  OFFSET 1.4199 -1.8761 1.4221
                  CHANNELS 3 Zrotation Xrotation Yrotation
                  JOINT RightFinger01
                  {
                    OFFSET 1.1472 -3.4929 2.6336
                    CHANNELS 3 Zrotation Xrotation Yrotation
                    JOINT RightFinger02
                    {
                      OFFSET 0.8229 -2.3 1.6571
                      CHANNELS 3 Zrotation Xrotation Yrotation
                      End Site
                      {
                        OFFSET 0.5822 -1.6914 1.1582
                      }
                    }
                  }
                }
              }
            }
          }
        }
      }
    }
  }
  JOINT RightHip
  {
    OFFSET -9.412 3.9771 -0.7758
    CHANNELS 3 Zrotation Xrotation Yrotation
    JOINT RightKnee
    {
      OFFSET -0.7531 -40.938 0
      CHANNELS 3 Zrotation Xrotation Yrotation
      JOINT RightAnkle
      {
        OFFSET 0 -40.1986 0
        CHANNELS 3 Zrotation Xrotation Yrotation
        JOINT RightToe
        {
          OFFSET 0 -4.4182 9.239
          CHANNELS 3 Zrotation Xrotation Yrotation
          End Site
          {
            OFFSET 0 0 6.1981
          }
        }
      }
    }
  }
  JOINT LeftHip
  {
    OFFSET 9.4119 3.9773 -0.7758
    CHANNELS 3 Zrotation Xrotation Yrotation
    JOINT LeftKnee
    {
      OFFSET 0.7532 -40.9383 0
      CHANNELS 3 Zrotation Xrotation Yrotation
      JOINT LeftAnkle
      {
        OFFSET 0 -40.1986 0
        CHANNELS 3 Zrotation Xrotation Yrotation
        JOINT LeftToe
        {
          OFFSET 0 -4.4182 9.239
          CHANNELS 3 Zrotation Xrotation Yrotation
          End Site
          {
            OFFSET 0 0 6.1981
          }
        }
      }
    }
  }
}
MOTION
Frames:	5
Frame Time:	0.0333333
5.80788e-005 67.184 3.4734 0 0 -0 0 0 -0 0 0 -0 0 0 -0 0 0 -0 0 0 -0 0 0 -12.5014 88.1196 14.2451 10.6914 -0.00160068 -0.00239207 0.000740045 -8.4365e-005 7.00714e-005 -9.52055e-007 9.93923e-017 -1.98785e-016 -1.59028e-015 9.93923e-017 -5.96354e-016 -1.59028e-015 -9.93923e-017 -5.96354e-016 -1.59028e-015 9.93923e-017 -1.98785e-016 -1.59028e-015 -0.0128176 0.00232552 8.52707e-005 9.93923e-017 5.96354e-016 -0 9.93923e-017 -1.98785e-016 -1.59028e-015 -0.0160551 0.00299681 0.000857156 -2.48481e-016 0 3.18055e-015 9.93923e-017 -1.98785e-016 -1.59028e-015 -0.0125865 0.0031206 0.00282719 0 1.98785e-016 -0 9.93923e-017 -1.98785e-016 -1.59028e-015 9.93923e-017 -5.96354e-016 -1.59028e-015 -9.93923e-017 -5.96354e-016 -1.59028e-015 -0.865644 0.16582 7.03859 -88.0329 10.2057 -10.5567 0.0015593 -0.00248883 -0.000788628 7.87605e-005 4.10553e-005 1.24965e-005 -3.97569e-016 -7.95139e-016 3.18055e-015 -1.98785e-016 -3.97569e-016 3.18055e-015 -1.98785e-016 0 3.18055e-015 -3.97569e-016 -7.95139e-016 3.18055e-015 0.0129473 0.00231697 -8.70038e-005 9.93923e-017 -7.95139e-016 1.59028e-015 -3.97569e-016 -7.95139e-016 3.18055e-015 0.0163314 0.00303369 -0.000872333 3.97569e-016 7.95139e-016 -3.18055e-015 -3.97569e-016 -7.95139e-016 3.18055e-015 0.0145763 0.00367772 -0.00326275 9.93923e-017 -3.97569e-016 -0 -3.97569e-016 -7.95139e-016 3.18055e-015 -1.98785e-016 -3.97569e-016 3.18055e-015 -1.98785e-016 0 3.18055e-015 3.42485 1.36937 -0.0640303 0.000136572 0.69354 0.00145564 -3.42573 -2.06297 -0.0607933 -3.19502e-024 0 -1.48106e-024 -3.42498 1.36123 0.0639712 -6.769e-005 0.712612 -0.0012277 3.42582 -2.07388 0.0612819 2.55305e-023 0 -2.31416e-026 
0.999418 21.2419 -1.49338 -8.76625e-015 14.0006 -180 -0.614155 18.3097 0.0480392 -1.3594 36.6177 0.345239 -1.35939 36.6174 0.345233 6.10601e-005 -0.297358 5.44473e-006 0.326986 -0.564772 0.00161108 -11.2388 -19.0359 -30.7081 31.5024 -55.1081 -24.1943 10.9444 -1.89233 13.6264 41.4246 -19.1806 -3.95096 9.54166e-015 3.18055e-015 -7.95139e-015 9.54166e-015 2.65536e-006 1.59028e-015 9.54166e-015 6.36111e-015 -3.18055e-015 9.54166e-015 3.18055e-015 -7.95139e-015 -0.012847 0.00233481 7.68634e-005 -9.54166e-015 3.18055e-015 -9.54166e-015 9.54166e-015 3.18055e-015 -7.95139e-015 -0.016012 0.0029946 0.000860255 -6.36111e-015 -3.18055e-015 -0 9.54166e-015 3.18055e-015 -7.95139e-015 -0.0125423 0.00312002 0.00282257 3.18055e-015 0 -0 9.54166e-015 3.18055e-015 -7.95139e-015 9.54166e-015 2.65536e-006 1.59028e-015 9.54166e-015 6.36111e-015 -3.18055e-015 8.77416 -19.202 22.6125 -24.3045 -57.8725 32.2786 -10.4368 -1.77606 -13.8334 -36.9217 -16.8784 2.49175 9.54166e-015 -3.18055e-015 4.77083e-015 -4.88701e-006 1.96578e-006 5.13085e-006 -7.12607e-006 -8.42235e-007 -7.77917e-006 9.54166e-015 -3.18055e-015 4.77083e-015 0.0129894 0.00232086 -8.8759e-005 1.98655e-006 5.54601e-006 -1.86447e-006 9.54166e-015 -3.18055e-015 4.77083e-015 0.0162959 0.00302357 -0.000868922 -1.91848e-006 2.18029e-006 -4.39948e-006 9.54166e-015 -3.18055e-015 4.77083e-015 0.0145466 0.00366861 -0.00325505 1.91841e-006 5.17089e-006 4.39948e-006 9.54166e-015 -3.18055e-015 4.77083e-015 -4.88701e-006 1.96578e-006 5.13085e-006 -7.12607e-006 -8.42235e-007 -7.77917e-006 -77.9665 -47.2952 -90.5346 -164.596 72.4462 164.314 -0.28921 -19.3063 0.0580293 -5.0277e-007 1.91715e-006 4.87581e-006 77.9694 -47.3965 90.4583 164.665 72.4542 -164.38 0.2115 -19.2945 -0.0182664 1.32893e-006 1.16071e-006 -4.94715e-006 
0.999428 20.6065 -1.41669 -8.66559e-015 13.2242 -180 -0.609044 17.8136 0.0368085 -1.33627 35.6257 0.309139 -1.33625 35.6254 0.309133 5.86602e-005 -0.296517 5.36803e-006 0.626756 -1.09717 0.140387 -11.1753 -17.9932 -30.4728 31.5024 -55.1081 -24.1942 10.9444 -1.89233 13.6264 40.9976 -18.7905 -4.18951 1.37897e-006 -1.33953e-006 8.19261e-007 1.69525e-006 -8.05225e-008 -7.2624e-006 -6.36111e-015 -6.36111e-015 1.59028e-015 1.37897e-006 -1.33953e-006 8.19261e-007 -0.012809 0.00232157 6.63066e-005 -6.77161e-006 9.47915e-007 1.54675e-005 1.37897e-006 -1.33953e-006 8.19261e-007 -0.0160772 0.00300174 0.000853528 -9.54166e-015 6.36111e-015 1.59028e-015 1.37897e-006 -1.33953e-006 8.19261e-007 -0.0126369 0.00313555 0.00283091 2.19921e-007 1.0724e-006 5.74129e-006 1.37897e-006 -1.33953e-006 8.19261e-007 1.69525e-006 -8.05225e-008 -7.2624e-006 -6.36111e-015 -6.36111e-015 1.59028e-015 8.82563 -18.1511 22.543 -24.3045 -57.8725 32.2785 -10.4368 -1.77605 -13.8334 -36.4277 -16.5766 2.80443 -3.40182e-006 -2.95584e-006 3.73104e-007 6.81559e-007 5.13461e-006 -2.70797e-006 -4.08338e-006 -2.00958e-006 3.08108e-006 -3.40182e-006 -2.95584e-006 3.73104e-007 0.0129541 0.00231809 -9.80321e-005 -1.00919e-005 3.8255e-006 1.76598e-006 -3.40182e-006 -2.95584e-006 3.73104e-007 0.0163402 0.00303932 -0.000870688 1.74219e-007 6.14995e-007 -5.61279e-006 -3.40182e-006 -2.95584e-006 3.73104e-007 0.0145513 0.00366189 -0.00325513 -1.92496e-006 2.02496e-006 -4.39586e-006 -3.40182e-006 -2.95584e-006 3.73104e-007 6.81559e-007 5.13461e-006 -2.70797e-006 -4.08338e-006 -2.00958e-006 3.08108e-006 -80.0964 -47.5363 -92.882 -165.056 71.7934 164.716 -0.507069 -19.0805 -0.104049 7.49392e-007 -4.19441e-007 2.54097e-006 80.1037 -47.633 92.8142 165.119 71.8005 -164.777 0.433625 -19.0694 0.141726 -8.26043e-007 1.72225e-006 7.10769e-008 
0.999437 19.9723 -1.33908 -8.56553e-015 12.4475 -180 -0.603627 17.3161 0.0255144 -1.31322 34.631 0.273467 -1.31321 34.6308 0.273462 5.85692e-005 -0.295726 6.18941e-006 0.928662 -1.63021 0.282347 -11.1165 -16.9489 -30.2397 31.5024 -55.1081 -24.1943 10.9444 -1.89229 13.6263 40.5732 -18.3987 -4.42453 2.26881e-007 1.0822e-006 5.74139e-006 5.06708e-006 -2.38717e-008 -8.21e-006 -3.53113e-031 -3.18055e-015 -6.36111e-015 2.26881e-007 1.0822e-006 5.74139e-006 -0.0128412 0.00231229 8.10124e-005 -2.76009e-006 -1.44117e-006 -1.6365e-006 2.26881e-007 1.0822e-006 5.74139e-006 -0.0160588 0.00298881 0.000859358 -3.18055e-015 0 4.77083e-015 2.26881e-007 1.0822e-006 5.74139e-006 -0.0125635 0.00311159 0.00282096 -1.91295e-006 6.29411e-006 1.52355e-006 2.26881e-007 1.0822e-006 5.74139e-006 5.06708e-006 -2.38717e-008 -8.21e-006 -3.53113e-031 -3.18055e-015 -6.36111e-015 8.87821 -17.0989 22.4728 -24.3045 -57.8725 32.2785 -10.4369 -1.77605 -13.8334 -35.9359 -16.272 3.11406 5.13869e-007 -1.82984e-006 2.90909e-006 2.60976e-006 5.64828e-006 1.68548e-006 -1.90833e-014 6.36111e-015 1.59028e-014 5.13869e-007 -1.82984e-006 2.90909e-006 0.0129174 0.00232272 -8.3315e-005 -1.98205e-006 2.81315e-007 1.86361e-006 5.13869e-007 -1.82984e-006 2.90909e-006 0.0163816 0.00304879 -0.000864032 -6.36111e-015 9.54166e-015 1.59028e-015 5.13869e-007 -1.82984e-006 2.90909e-006 0.0146195 0.00368461 -0.00326842 6.36111e-015 3.18055e-015 -4.77083e-015 5.13869e-007 -1.82984e-006 2.90909e-006 2.60976e-006 5.64828e-006 1.68548e-006 -1.90833e-014 6.36111e-015 1.59028e-014 -82.2545 -47.7198 -95.2587 -165.486 71.1385 165.089 -0.723906 -18.8551 -0.265261 -3.18055e-015 7.71879e-008 -0 82.2655 -47.812 95.1989 165.543 71.1451 -165.144 0.654687 -18.8448 0.3008 -8.26029e-007 -3.04903e-007 7.07966e-008 
0.999445 19.3394 -1.26052 -8.466e-015 11.6702 -180 -0.598358 16.8175 0.0143328 -1.29128 33.6339 0.238738 -1.29127 33.6338 0.238734 5.57252e-005 -0.294862 6.95257e-006 1.23275 -2.16379 0.427531 -11.0625 -15.9031 -30.0087 31.5024 -55.1081 -24.1943 10.9443 -1.89232 13.6263 40.1513 -18.005 -4.65607 3.18055e-015 0 6.36111e-015 -1.9087e-006 1.81949e-006 1.52599e-006 -6.36111e-015 -3.18055e-015 -1.59028e-015 3.18055e-015 0 6.36111e-015 -0.0127821 0.00231969 8.18596e-005 3.18055e-015 -9.54166e-015 1.11319e-014 3.18055e-015 0 6.36111e-015 -0.0160772 0.00299588 0.000855055 6.36111e-015 -6.36111e-015 4.77083e-015 3.18055e-015 0 6.36111e-015 -0.0125924 0.00313103 0.00281962 -6.36111e-015 -9.54166e-015 -4.77083e-015 3.18055e-015 0 6.36111e-015 -1.9087e-006 1.81949e-006 1.52599e-006 -6.36111e-015 -3.18055e-015 -1.59028e-015 8.93191 -16.0454 22.4019 -24.3045 -57.8725 32.2786 -10.4368 -1.77607 -13.8334 -35.4465 -15.9647 3.4206 -3.18055e-015 0 -1.27222e-014 -1.30652e-006 -3.76911e-006 -8.41443e-007 6.36111e-015 -3.18055e-015 4.77083e-015 -3.18055e-015 0 -1.27222e-014 0.0129318 0.00231069 -9.56023e-005 -6.36111e-015 6.36111e-015 4.77083e-015 -3.18055e-015 0 -1.27222e-014 0.0163492 0.00304143 -0.000864284 -4.91612e-006 -1.40336e-006 -1.46027e-005 -3.18055e-015 0 -1.27222e-014 0.014577 0.00367269 -0.00326004 -1.27222e-014 0 1.59028e-015 -3.18055e-015 0 -1.27222e-014 -1.30652e-006 -3.76911e-006 -8.41443e-007 6.36111e-015 -3.18055e-015 4.77083e-015 -84.434 -47.844 -97.658 -165.889 70.4817 165.434 -0.939678 -18.6302 -0.425584 -1.59028e-015 -4.77083e-015 -0 84.4481 -47.9317 97.6058 165.941 70.4879 -165.484 0.87471 -18.6206 0.458987 -1.65201e-006 3.29117e-007 1.41192e-007 
